#tb 0: 1/25
#media_type 0: video
#codec_id 0: rawvideo
#dimensions 0: 176x144
#sar 0: 0/1
0,          0,          0,        1,    38016, 0xa3b72d2f
0,          1,          1,        1,    38016, 0x77d918ae
0,          2,          2,        1,    38016, 0x181ad684
0,          3,          3,        1,    38016, 0x0dafa49c
0,          4,          4,        1,    38016, 0x8250a733
0,          5,          5,        1,    38016, 0x5d4f79b5
0,          6,          6,        1,    38016, 0x59664665
0,          7,          7,        1,    38016, 0xdce3491c
0,          8,          8,        1,    38016, 0xaffc395f
0,          9,          9,        1,    38016, 0xfb09320d
0,         10,         10,        1,    38016, 0x9b776724
0,         11,         11,        1,    38016, 0x30497da7
0,         12,         12,        1,    38016, 0xffd16ea0
0,         13,         13,        1,    38016, 0x5b7da1b5
0,         14,         14,        1,    38016, 0x764a9cc4
0,         15,         15,        1,    38016, 0xc4c79c41
0,         16,         16,        1,    38016, 0x883299dd
0,         17,         17,        1,    38016, 0xd5f39350
0,         18,         18,        1,    38016, 0x892f6808
0,         19,         19,        1,    38016, 0x5b0572d7
0,         20,         20,        1,    38016, 0x53c84a0c
0,         21,         21,        1,    38016, 0xe6ff14e2
0,         22,         22,        1,    38016, 0xd66d1924
0,         23,         23,        1,    38016, 0x7bec105f
0,         24,         24,        1,    38016, 0x405ffc8d
0,         25,         25,        1,    38016, 0xfccc2019
0,         26,         26,        1,    38016, 0x639f25a2
0,         27,         27,        1,    38016, 0xf89e179b
0,         28,         28,        1,    38016, 0x3e49456e
0,         29,         29,        1,    38016, 0x8d7d5d8e
0,         30,         30,        1,    38016, 0x89d15f1e
0,         31,         31,        1,    38016, 0x413d8c6a
0,         32,         32,        1,    38016, 0xf1a0a555
0,         33,         33,        1,    38016, 0x61249a1f
0,         34,         34,        1,    38016, 0xbd91c000
0,         35,         35,        1,    38016, 0x3209c225
0,         36,         36,        1,    38016, 0xfebca72f
0,         37,         37,        1,    38016, 0x839abdfd
0,         38,         38,        1,    38016, 0xa47cbc00
0,         39,         39,        1,    38016, 0x4537a269
0,         40,         40,        1,    38016, 0xbf19c0b2
0,         41,         41,        1,    38016, 0x7487c290
0,         42,         42,        1,    38016, 0xfbf8ab0c
0,         43,         43,        1,    38016, 0xce2ab41e
0,         44,         44,        1,    38016, 0xb505acf2
0,         45,         45,        1,    38016, 0x758489bc
0,         46,         46,        1,    38016, 0x7eae9aca
0,         47,         47,        1,    38016, 0x67b59692
0,         48,         48,        1,    38016, 0x074d9354
0,         49,         49,        1,    38016, 0xb6f6ae8a
0,         50,         50,        1,    38016, 0xe3b9a825
0,         51,         51,        1,    38016, 0x5f4e9cb2
0,         52,         52,        1,    38016, 0x88b3abcd
0,         53,         53,        1,    38016, 0x0cd7acdb
0,         54,         54,        1,    38016, 0xa731a3e4
0,         55,         55,        1,    38016, 0x9414c055
0,         56,         56,        1,    38016, 0x6cfec34a
0,         57,         57,        1,    38016, 0x6c89bce0
0,         58,         58,        1,    38016, 0xdabdc781
0,         59,         59,        1,    38016, 0x1afcc587
0,         60,         60,        1,    38016, 0xb4e79851
0,         61,         61,        1,    38016, 0x383ca78a
0,         62,         62,        1,    38016, 0x461f83fb
0,         63,         63,        1,    38016, 0x55f039e3
0,         64,         64,        1,    38016, 0xb6ec5d3f
0,         65,         65,        1,    38016, 0x645888af
0,         66,         66,        1,    38016, 0x37bc9e52
0,         67,         67,        1,    38016, 0x12a4f603
0,         68,         68,        1,    38016, 0x63e92df7
0,         69,         69,        1,    38016, 0x1a0246e3
0,         70,         70,        1,    38016, 0x1a6282fe
0,         71,         71,        1,    38016, 0x4e99a785
0,         72,         72,        1,    38016, 0xdaefbf23
0,         73,         73,        1,    38016, 0x9e8f00f1
0,         74,         74,        1,    38016, 0x85ea26c5
0,         75,         75,        1,    38016, 0x495e2ddb
0,         76,         76,        1,    38016, 0xab6278a4
0,         77,         77,        1,    38016, 0x48a78708
0,         78,         78,        1,    38016, 0x6fe99535
0,         79,         79,        1,    38016, 0xc3d9b8eb
0,         80,         80,        1,    38016, 0x4491c577
0,         81,         81,        1,    38016, 0x4d42cc30
0,         82,         82,        1,    38016, 0x3469d8bd
0,         83,         83,        1,    38016, 0x563dd0ad
0,         84,         84,        1,    38016, 0x681dbdef
0,         85,         85,        1,    38016, 0x5da9d2a7
0,         86,         86,        1,    38016, 0x75abdf2e
0,         87,         87,        1,    38016, 0x9bf0d13a
0,         88,         88,        1,    38016, 0x3c24dd7c
0,         89,         89,        1,    38016, 0x5132df96
0,         90,         90,        1,    38016, 0x01bd9d86
0,         91,         91,        1,    38016, 0x2b97bdfe
0,         92,         92,        1,    38016, 0xa7fdb2f1
0,         93,         93,        1,    38016, 0xcf908cfd
0,         94,         94,        1,    38016, 0xd18e7e52
0,         95,         95,        1,    38016, 0x6a1d78d3
0,         96,         96,        1,    38016, 0xd9cc83af
0,         97,         97,        1,    38016, 0xf6329ca1
0,         98,         98,        1,    38016, 0x1976aaeb
0,         99,         99,        1,    38016, 0xa3e8a3ce
0,        100,        100,        1,    38016, 0x73a2bd65
0,        101,        101,        1,    38016, 0xfd00a552
0,        102,        102,        1,    38016, 0x2df18642
0,        103,        103,        1,    38016, 0x85ad82fb
0,        104,        104,        1,    38016, 0x0456a864
0,        105,        105,        1,    38016, 0x0d6da3b6
0,        106,        106,        1,    38016, 0xabf0de94
0,        107,        107,        1,    38016, 0x68aef77e
0,        108,        108,        1,    38016, 0xd6aefd84
0,        109,        109,        1,    38016, 0x01953184
0,        110,        110,        1,    38016, 0xff324067
0,        111,        111,        1,    38016, 0x49aa300f
0,        112,        112,        1,    38016, 0xc146456b
0,        113,        113,        1,    38016, 0xfe5c2980
0,        114,        114,        1,    38016, 0x8f4df7eb
0,        115,        115,        1,    38016, 0x137c1373
0,        116,        116,        1,    38016, 0xfb9d1006
0,        117,        117,        1,    38016, 0x7f5409f9
0,        118,        118,        1,    38016, 0xa6ff29fc
0,        119,        119,        1,    38016, 0xc63e3807
0,        120,        120,        1,    38016, 0xd77c313a
0,        121,        121,        1,    38016, 0xdd3832dd
0,        122,        122,        1,    38016, 0xe70d140c
0,        123,        123,        1,    38016, 0xa559d731
0,        124,        124,        1,    38016, 0x3593d345
0,        125,        125,        1,    38016, 0x7497ad8a
0,        126,        126,        1,    38016, 0x9906919f
0,        127,        127,        1,    38016, 0x18bfb034
0,        128,        128,        1,    38016, 0xa4fbbd76
0,        129,        129,        1,    38016, 0xbd6cc31c
0,        130,        130,        1,    38016, 0x6ddde005
0,        131,        131,        1,    38016, 0x0072dd5f
0,        132,        132,        1,    38016, 0x62c5c5c0
0,        133,        133,        1,    38016, 0x1093cf81
0,        134,        134,        1,    38016, 0x46dbc9ff
0,        135,        135,        1,    38016, 0x0269a169
0,        136,        136,        1,    38016, 0xc96daa27
0,        137,        137,        1,    38016, 0xa0319cf4
0,        138,        138,        1,    38016, 0x1cae87fd
0,        139,        139,        1,    38016, 0xf1a0977f
0,        140,        140,        1,    38016, 0xc4d48a56
0,        141,        141,        1,    38016, 0xd3b1704c
0,        142,        142,        1,    38016, 0xd5e46a6c
0,        143,        143,        1,    38016, 0xb73e68fb
0,        144,        144,        1,    38016, 0xc0585fcf
0,        145,        145,        1,    38016, 0x1b3978fe
0,        146,        146,        1,    38016, 0xdda66c02
0,        147,        147,        1,    38016, 0x581033d6
0,        148,        148,        1,    38016, 0x0737185f
0,        149,        149,        1,    38016, 0xa0c9f494
0,        150,        150,        1,    38016, 0x916eae22
0,        151,        151,        1,    38016, 0xfdf7d6cd
0,        152,        152,        1,    38016, 0x6978ce4c
0,        153,        153,        1,    38016, 0x6783b016
0,        154,        154,        1,    38016, 0x528ac304
0,        155,        155,        1,    38016, 0x245de0ae
0,        156,        156,        1,    38016, 0x1dade956
0,        157,        157,        1,    38016, 0xa8f316da
0,        158,        158,        1,    38016, 0x95f04ca6
0,        159,        159,        1,    38016, 0x76615822
0,        160,        160,        1,    38016, 0x21de6ff4
0,        161,        161,        1,    38016, 0x12be5e8b
0,        162,        162,        1,    38016, 0x47ea3cbd
0,        163,        163,        1,    38016, 0x113631b5
0,        164,        164,        1,    38016, 0x546b2789
0,        165,        165,        1,    38016, 0x0505f2bb
0,        166,        166,        1,    38016, 0x90eee299
0,        167,        167,        1,    38016, 0x305cb341
0,        168,        168,        1,    38016, 0x5921841b
0,        169,        169,        1,    38016, 0x1449922d
0,        170,        170,        1,    38016, 0xca8f9f0a
0,        171,        171,        1,    38016, 0x0daeab19
0,        172,        172,        1,    38016, 0xde20dc27
0,        173,        173,        1,    38016, 0xb6ffd92c
0,        174,        174,        1,    38016, 0xedb1bc49
0,        175,        175,        1,    38016, 0x4ccf9ff5
0,        176,        176,        1,    38016, 0xfb636cd5
0,        177,        177,        1,    38016, 0x9c562c3d
0,        178,        178,        1,    38016, 0x0b021c95
0,        179,        179,        1,    38016, 0x8da50f21
0,        180,        180,        1,    38016, 0xa043ec8c
0,        181,        181,        1,    38016, 0x0143f4f2
0,        182,        182,        1,    38016, 0x77bece5b
0,        183,        183,        1,    38016, 0x147ccc68
0,        184,        184,        1,    38016, 0xa90cf948
0,        185,        185,        1,    38016, 0x8764066e
0,        186,        186,        1,    38016, 0x26c61821
0,        187,        187,        1,    38016, 0x39dd3be4
0,        188,        188,        1,    38016, 0xe2203c69
0,        189,        189,        1,    38016, 0x00e73014
0,        190,        190,        1,    38016, 0x0024f9eb
0,        191,        191,        1,    38016, 0x3a0da880
0,        192,        192,        1,    38016, 0x0336a353
0,        193,        193,        1,    38016, 0x721ed897
0,        194,        194,        1,    38016, 0x1c51f53f
0,        195,        195,        1,    38016, 0xeec91a00
0,        196,        196,        1,    38016, 0x73074864
0,        197,        197,        1,    38016, 0x672e5ff8
0,        198,        198,        1,    38016, 0xe7ea7aba
0,        199,        199,        1,    38016, 0x11899f08
0,        200,        200,        1,    38016, 0xa98daf03
0,        201,        201,        1,    38016, 0x4553af5c
0,        202,        202,        1,    38016, 0x4892c5d5
0,        203,        203,        1,    38016, 0x0ddbc2eb
0,        204,        204,        1,    38016, 0x0ce5b867
0,        205,        205,        1,    38016, 0xb0e6ce2c
0,        206,        206,        1,    38016, 0x8a2bd4da
0,        207,        207,        1,    38016, 0xf9f4cbec
0,        208,        208,        1,    38016, 0x77aeba8f
0,        209,        209,        1,    38016, 0xc1839e46
0,        210,        210,        1,    38016, 0x34845d3a
0,        211,        211,        1,    38016, 0xc3227ad7
0,        212,        212,        1,    38016, 0x2dad7051
0,        213,        213,        1,    38016, 0x7145565a
0,        214,        214,        1,    38016, 0x1e056ef1
0,        215,        215,        1,    38016, 0x9baa5195
0,        216,        216,        1,    38016, 0xacb53a1a
0,        217,        217,        1,    38016, 0x825d4fb7
0,        218,        218,        1,    38016, 0x63194b14
0,        219,        219,        1,    38016, 0xcb16360e
0,        220,        220,        1,    38016, 0x35104320
0,        221,        221,        1,    38016, 0x7e4c33dc
0,        222,        222,        1,    38016, 0x84811693
0,        223,        223,        1,    38016, 0x242b1811
0,        224,        224,        1,    38016, 0xb4af2667
0,        225,        225,        1,    38016, 0x77a20da2
0,        226,        226,        1,    38016, 0x8e4f36a8
0,        227,        227,        1,    38016, 0xe72435cb
0,        228,        228,        1,    38016, 0xf38a381b
0,        229,        229,        1,    38016, 0xb2b876d6
0,        230,        230,        1,    38016, 0x1c359b35
0,        231,        231,        1,    38016, 0x4fb8b180
0,        232,        232,        1,    38016, 0x90fdf94b
0,        233,        233,        1,    38016, 0xb8680c40
0,        234,        234,        1,    38016, 0x99331edd
0,        235,        235,        1,    38016, 0xd8e3433d
0,        236,        236,        1,    38016, 0x6d4d5aa2
0,        237,        237,        1,    38016, 0x4c3545c4
0,        238,        238,        1,    38016, 0x25b8376f
0,        239,        239,        1,    38016, 0xc4fe09df
0,        240,        240,        1,    38016, 0x6a9fe4f8
0,        241,        241,        1,    38016, 0x8fd2c2f3
0,        242,        242,        1,    38016, 0x78199f41
0,        243,        243,        1,    38016, 0x27b6e9f0
0,        244,        244,        1,    38016, 0xd8316400
0,        245,        245,        1,    38016, 0x0a70cd14
0,        246,        246,        1,    38016, 0x2075e91c
0,        247,        247,        1,    38016, 0xcd3cd7cb
0,        248,        248,        1,    38016, 0x4edc8cf5
0,        249,        249,        1,    38016, 0xf02e0bc7
0,        250,        250,        1,    38016, 0xcdd1b487
0,        251,        251,        1,    38016, 0xea5f6c8f
0,        252,        252,        1,    38016, 0x6b635e22
0,        253,        253,        1,    38016, 0xd548c435
0,        254,        254,        1,    38016, 0x455826ee
0,        255,        255,        1,    38016, 0x120ac7ed
0,        256,        256,        1,    38016, 0xf86adc5a
0,        257,        257,        1,    38016, 0x8dbd5c4e
0,        258,        258,        1,    38016, 0xe4c62dae
0,        259,        259,        1,    38016, 0x0a2a3be7
0,        260,        260,        1,    38016, 0xf8a243d7
0,        261,        261,        1,    38016, 0x898a3afb
0,        262,        262,        1,    38016, 0x39e661bb
0,        263,        263,        1,    38016, 0xe4e65f22
0,        264,        264,        1,    38016, 0x014846ff
0,        265,        265,        1,    38016, 0xf392509c
0,        266,        266,        1,    38016, 0x34623207
0,        267,        267,        1,    38016, 0xac4a09ed
0,        268,        268,        1,    38016, 0x9d18eb07
0,        269,        269,        1,    38016, 0x4594c90e
0,        270,        270,        1,    38016, 0x624f9b6b
0,        271,        271,        1,    38016, 0x8adc89d3
0,        272,        272,        1,    38016, 0xf4dd64f6
0,        273,        273,        1,    38016, 0x4c121386
0,        274,        274,        1,    38016, 0xfb5ddc7e
0,        275,        275,        1,    38016, 0x837fc31e
0,        276,        276,        1,    38016, 0xa4f4bd31
0,        277,        277,        1,    38016, 0x0445def7
0,        278,        278,        1,    38016, 0xbac0fe62
0,        279,        279,        1,    38016, 0x050b5778
0,        280,        280,        1,    38016, 0x3d0723e5
0,        281,        281,        1,    38016, 0x9967eae7
0,        282,        282,        1,    38016, 0xf4be9ec7
0,        283,        283,        1,    38016, 0x870377d2
0,        284,        284,        1,    38016, 0x5c9d648a
0,        285,        285,        1,    38016, 0x2d41a44b
0,        286,        286,        1,    38016, 0xa50e7c6f
0,        287,        287,        1,    38016, 0x2bd1b477
0,        288,        288,        1,    38016, 0xd123ae8d
0,        289,        289,        1,    38016, 0xf2fc7a6b
0,        290,        290,        1,    38016, 0xaa3ee416
0,        291,        291,        1,    38016, 0x5f8801d6
0,        292,        292,        1,    38016, 0xbee7924a
0,        293,        293,        1,    38016, 0x6e47c3e1
0,        294,        294,        1,    38016, 0xf34f1223
0,        295,        295,        1,    38016, 0x7a610876
0,        296,        296,        1,    38016, 0x15e9e47f
0,        297,        297,        1,    38016, 0x557ddcf1
0,        298,        298,        1,    38016, 0xf0cd02e2
0,        299,        299,        1,    38016, 0xe98f1deb
